{"title":"Parker 2013 BRRip 480p x264 AAC - VYTO [P2PDL]","uid":8440129,"size":401232440,"categoryP":"video","categoryS":"movies","magnet":"?xt=urn:btih:4034db0682ce4efa542c0813c6ca227c8c8b54c5&amp;dn=Parker+2013+BRRip+480p+x264+AAC+-+VYTO+%5BP2PDL%5D&amp;tr=udp%3A%2F%2Ftracker.openbittorrent.com%3A80&amp;tr=udp%3A%2F%2Fopen.demonii.com%3A1337&amp;tr=udp%3A%2F%2Ftracker.coppersurfer.tk%3A6969&amp;tr=udp%3A%2F%2Fexodus.desync.com%3A6969","seeders":0,"leechers":0,"uploader":"ValidusVyto","files":-1,"time":1367749581,"description":"_________________________  Visit us at _________________________\n  &lt;a href=&quot;\nhttp://p2pdl.com&quot; rel=&quot;nofollow&quot; target=&quot;_NEW&quot;&gt;\nhttp://p2pdl.com&lt;/a&gt;  ____________________________ &lt;a href=&quot; http://p2pdl.com&quot; rel=&quot;nofollow&quot; target=&quot;_NEW&quot;&gt; http://p2pdl.com&lt;/a&gt;\n\n\nParker 2013 BRRip 480p x264 AAC - VYTO\n\n\nGenre: Action | Crime | Thriller\nPlot: A thief with a unique code of professional ethics is double-crossed by his crew and left for\ndead. Assuming a new disguise and forming an unlikely alliance with a woman on the inside, he looks\nto hijack the score of the crew's latest heist.\nDirector: Taylor Hackford\nStars: Jason Statham, Jennifer Lopez, Michael Chiklis.\nRated: R for strong violence, language throughout and brief sexual content/nudity.\n\n\nInfo: &lt;a href=&quot;\nhttp://www.imdb.com/title/tt1904996/&quot; rel=&quot;nofollow&quot; target=&quot;_NEW&quot;&gt;\nhttp://www.imdb.com/title/tt1904996/&lt;/a&gt;\n\nTrailer:\n\n\nFormat                         : MPEG-4\nFile size                      : 377 MiB\nDuration                       : 1h 58mn\nOverall bit rate mode          : Variable\n\nVideo\nFormat                         : AVC\nBit rate                       : 401 Kbps\nWidth                          : 720 pixels\nHeight                         : 304 pixels\nDisplay aspect ratio           : 2.35:1\nFrame rate mode                : Constant\nFrame rate                     : 23.976 fps\nStream size                    : 340 MiB (90%)\nWriting library                : x264 core 130\n\nAudio\nFormat                         : AAC\nBit rate                       : 40.0 Kbps\nChannel(s)                     : 2 channels\nChannel positions              : Front: L R\nSampling rate                  : 44.1 KHz\nStream size                    : 34.0 MiB (9%)\nLanguage                       : English\n\nSubtitle                       : Yes (English)\nSource                         : 720p.BluRay.x264-iNFAMOUS(Thanks)\n\nScreens:\n &lt;a href=&quot;\nhttp://www.ultraimg.com/images/fT3I1.png&quot; rel=&quot;nofollow&quot; target=&quot;_NEW&quot;&gt;\nhttp://www.ultraimg.com/images/fT3I1.png&lt;/a&gt; &lt;a href=&quot;\nhttp://www.ultraimg.com/images/Cjpsl.png&quot; rel=&quot;nofollow&quot; target=&quot;_NEW&quot;&gt;\nhttp://www.ultraimg.com/images/Cjpsl.png&lt;/a&gt; &lt;a href=&quot;\nhttp://www.ultraimg.com/images/Uvjbe.png&quot; rel=&quot;nofollow&quot; target=&quot;_NEW&quot;&gt;\nhttp://www.ultraimg.com/images/Uvjbe.png&lt;/a&gt; &lt;a href=&quot;\nhttp://www.ultraimg.com/images/eGR0O.png&quot; rel=&quot;nofollow&quot; target=&quot;_NEW&quot;&gt;\nhttp://www.ultraimg.com/images/eGR0O.png&lt;/a&gt; &lt;a href=&quot;\nhttp://www.ultraimg.com/images/hyvE.png&quot; rel=&quot;nofollow&quot; target=&quot;_NEW&quot;&gt;\nhttp://www.ultraimg.com/images/hyvE.png&lt;/a&gt; &lt;a href=&quot;\nhttp://www.ultraimg.com/images/HWKyC.png&quot; rel=&quot;nofollow&quot; target=&quot;_NEW&quot;&gt;\nhttp://www.ultraimg.com/images/HWKyC.png&lt;/a&gt;\n\n\n----------------------------------------------------------------------------------------------------\n\n\nEncoded using revolutionary 10bit encoding, which enables us to provide you more crispier \nand sharper images at small sizes, just make sure you follow our instructions without a fault.\nRecommend to you to use latest version of VLC player. Install K-Lite Codec Pack or shark007 codecs\nin case of any kind of problem in playback (For non-VLC Media Player users). Alternatively, install\nCore AVC codecs, the fastest decoder that there is coupled with Community Center Codec Pack and play\non Windows Media Player Classic. Check sample to be sure.\nEnjoy!\n\nEncoder Notes:Looking For Early Access To Anything You Can Provide DVDScr, R5, DVDR, BluRay, Direct\nAudio, Music Releases and Seedboxes. We require dedicated servers, so as to do more \nand fast releases of movies.\nIf You Got anything to offer please contact us at &quot;&lt;a class=&quot;__cf_email__&quot; href=&quot;/cdn-cgi/l/email-protection&quot; data-cfemail=&quot;0a7a786d4a627f796224696567&quot;&gt;[email&amp;#160;protected]&lt;/a&gt;&lt;script data-cfhash='f9e31' type=&quot;text/javascript&quot;&gt;\n/* &lt;![CDATA[ */!function(){try{var t=&quot;currentScript&quot;in document?document.currentScript:function(){for(var t=document.getElementsByTagName(&quot;script&quot;),e=t.length;e--;)if(t[e].getAttribute(&quot;data-cfhash&quot;))return t[e]}();if(t&amp;&amp;t.previousSibling){var e,r,n,i,c=t.previousSibling,a=c.getAttribute(&quot;data-cfemail&quot;);if(a){for(e=&quot;&quot;,r=parseInt(a.substr(0,2),16),n=2;a.length-n;n+=2)i=parseInt(a.substr(n,2),16)^r,e+=String.fromCharCode(i);e=document.createTextNode(e),c.parentNode.replaceChild(e,c)}t.parentNode.removeChild(t);}}catch(u){}}()/* ]]&gt; */&lt;/script&gt;&quot;.\n\nFace book Fan Page:   &lt;a href=&quot;\nhttp://www.fb.me/p2pdl&quot; rel=&quot;nofollow&quot; target=&quot;_NEW&quot;&gt;\nhttp://www.fb.me/p2pdl&lt;/a&gt;","torrent":{"xt":"urn:btih:4034db0682ce4efa542c0813c6ca227c8c8b54c5","amp;dn":"Parker+2013+BRRip+480p+x264+AAC+-+VYTO+%5BP2PDL%5D","amp;tr":["udp%3A%2F%2Ftracker.openbittorrent.com%3A80","udp%3A%2F%2Fopen.demonii.com%3A1337","udp%3A%2F%2Ftracker.coppersurfer.tk%3A6969","udp%3A%2F%2Fexodus.desync.com%3A6969"],"infoHash":"4034db0682ce4efa542c0813c6ca227c8c8b54c5","infoHashBuffer":{"type":"Buffer","data":[64,52,219,6,130,206,78,250,84,44,8,19,198,202,34,124,140,139,84,197]},"announce":[],"urlList":[]}}